<mxfile host="app.diagrams.net" modified="2023-10-20T01:50:13.604Z" agent="Mozilla/5.0 (Windows NT 10.0; Win64; x64; rv:109.0) Gecko/20100101 Firefox/118.0" etag="yg5jI0p0t9B0whm96BMx" version="22.0.5" type="github">
  <diagram name="Page-1" id="iJ_x8KidQniaqzww15sX">
    <mxGraphModel dx="1100" dy="588" grid="1" gridSize="10" guides="1" tooltips="1" connect="1" arrows="1" fold="1" page="1" pageScale="1" pageWidth="850" pageHeight="1100" math="0" shadow="0">
      <root>
        <mxCell id="0" />
        <mxCell id="1" parent="0" />
        <mxCell id="Cj8HW5afOCzdOhd1A8s_-1" value="Fine-tune the model " style="rounded=0;whiteSpace=wrap;html=1;" vertex="1" parent="1">
          <mxGeometry x="980" y="120" width="120" height="60" as="geometry" />
        </mxCell>
        <mxCell id="Cj8HW5afOCzdOhd1A8s_-2" value="Collect and preprocess coffee plant image data " style="rounded=0;whiteSpace=wrap;html=1;" vertex="1" parent="1">
          <mxGeometry x="80" y="120" width="120" height="60" as="geometry" />
        </mxCell>
        <mxCell id="Cj8HW5afOCzdOhd1A8s_-3" value="Test the model&#39;s accuracy " style="rounded=0;whiteSpace=wrap;html=1;" vertex="1" parent="1">
          <mxGeometry x="790" y="118" width="120" height="60" as="geometry" />
        </mxCell>
        <mxCell id="Cj8HW5afOCzdOhd1A8s_-4" value="Train the deep learning model" style="rounded=0;whiteSpace=wrap;html=1;" vertex="1" parent="1">
          <mxGeometry x="560" y="118" width="120" height="60" as="geometry" />
        </mxCell>
        <mxCell id="Cj8HW5afOCzdOhd1A8s_-5" value="Develop a deep learning model architecture " style="rounded=0;whiteSpace=wrap;html=1;" vertex="1" parent="1">
          <mxGeometry x="340" y="120" width="120" height="60" as="geometry" />
        </mxCell>
        <mxCell id="Cj8HW5afOCzdOhd1A8s_-6" value="Gather project requirements" style="rounded=0;whiteSpace=wrap;html=1;" vertex="1" parent="1">
          <mxGeometry x="1400" y="128" width="120" height="60" as="geometry" />
        </mxCell>
        <mxCell id="Cj8HW5afOCzdOhd1A8s_-7" value="Implement model deployment " style="rounded=0;whiteSpace=wrap;html=1;" vertex="1" parent="1">
          <mxGeometry x="1180" y="118" width="120" height="60" as="geometry" />
        </mxCell>
        <mxCell id="Cj8HW5afOCzdOhd1A8s_-8" value="Create a project Plan " style="rounded=0;whiteSpace=wrap;html=1;" vertex="1" parent="1">
          <mxGeometry x="1670" y="110" width="120" height="60" as="geometry" />
        </mxCell>
        <mxCell id="Cj8HW5afOCzdOhd1A8s_-9" value="Research existing Data sets " style="rounded=0;whiteSpace=wrap;html=1;" vertex="1" parent="1">
          <mxGeometry x="1550" y="20" width="120" height="60" as="geometry" />
        </mxCell>
        <mxCell id="Cj8HW5afOCzdOhd1A8s_-10" value="Define Project scope " style="rounded=0;whiteSpace=wrap;html=1;" vertex="1" parent="1">
          <mxGeometry x="1550" y="200" width="120" height="60" as="geometry" />
        </mxCell>
        <mxCell id="Cj8HW5afOCzdOhd1A8s_-11" value="Define project schedule " style="rounded=0;whiteSpace=wrap;html=1;" vertex="1" parent="1">
          <mxGeometry x="1870" y="110" width="120" height="60" as="geometry" />
        </mxCell>
        <mxCell id="Cj8HW5afOCzdOhd1A8s_-12" value="Document the project " style="rounded=0;whiteSpace=wrap;html=1;" vertex="1" parent="1">
          <mxGeometry x="2065" y="110" width="120" height="60" as="geometry" />
        </mxCell>
        <mxCell id="Cj8HW5afOCzdOhd1A8s_-13" value="Prepare for project Presentation " style="rounded=0;whiteSpace=wrap;html=1;" vertex="1" parent="1">
          <mxGeometry x="2250" y="110" width="120" height="60" as="geometry" />
        </mxCell>
        <mxCell id="Cj8HW5afOCzdOhd1A8s_-14" value="Review and finalize project " style="rounded=0;whiteSpace=wrap;html=1;" vertex="1" parent="1">
          <mxGeometry x="2450" y="110" width="120" height="60" as="geometry" />
        </mxCell>
        <mxCell id="Cj8HW5afOCzdOhd1A8s_-15" value="Project closure and handover " style="rounded=0;whiteSpace=wrap;html=1;" vertex="1" parent="1">
          <mxGeometry x="2640" y="120" width="120" height="60" as="geometry" />
        </mxCell>
        <mxCell id="Cj8HW5afOCzdOhd1A8s_-16" value="" style="endArrow=classic;html=1;rounded=0;" edge="1" parent="1">
          <mxGeometry width="50" height="50" relative="1" as="geometry">
            <mxPoint x="210" y="150" as="sourcePoint" />
            <mxPoint x="330" y="150" as="targetPoint" />
          </mxGeometry>
        </mxCell>
        <mxCell id="Cj8HW5afOCzdOhd1A8s_-17" value="" style="endArrow=classic;html=1;rounded=0;" edge="1" parent="1">
          <mxGeometry width="50" height="50" relative="1" as="geometry">
            <mxPoint x="470" y="149.38" as="sourcePoint" />
            <mxPoint x="550" y="149.38" as="targetPoint" />
          </mxGeometry>
        </mxCell>
        <mxCell id="Cj8HW5afOCzdOhd1A8s_-18" value="" style="endArrow=classic;html=1;rounded=0;" edge="1" parent="1">
          <mxGeometry width="50" height="50" relative="1" as="geometry">
            <mxPoint x="690" y="150" as="sourcePoint" />
            <mxPoint x="780" y="150" as="targetPoint" />
          </mxGeometry>
        </mxCell>
        <mxCell id="Cj8HW5afOCzdOhd1A8s_-19" value="" style="endArrow=classic;html=1;rounded=0;" edge="1" parent="1">
          <mxGeometry width="50" height="50" relative="1" as="geometry">
            <mxPoint x="910" y="150" as="sourcePoint" />
            <mxPoint x="980" y="150" as="targetPoint" />
          </mxGeometry>
        </mxCell>
        <mxCell id="Cj8HW5afOCzdOhd1A8s_-37" value="1 week " style="edgeLabel;html=1;align=center;verticalAlign=middle;resizable=0;points=[];" vertex="1" connectable="0" parent="Cj8HW5afOCzdOhd1A8s_-19">
          <mxGeometry x="-0.0714" y="12" relative="1" as="geometry">
            <mxPoint as="offset" />
          </mxGeometry>
        </mxCell>
        <mxCell id="Cj8HW5afOCzdOhd1A8s_-21" value="" style="endArrow=classic;html=1;rounded=0;" edge="1" parent="1">
          <mxGeometry width="50" height="50" relative="1" as="geometry">
            <mxPoint x="1310" y="160" as="sourcePoint" />
            <mxPoint x="1390" y="160" as="targetPoint" />
          </mxGeometry>
        </mxCell>
        <mxCell id="Cj8HW5afOCzdOhd1A8s_-22" value="" style="endArrow=classic;html=1;rounded=0;" edge="1" parent="1">
          <mxGeometry width="50" height="50" relative="1" as="geometry">
            <mxPoint x="1490" y="118" as="sourcePoint" />
            <mxPoint x="1540" y="68" as="targetPoint" />
          </mxGeometry>
        </mxCell>
        <mxCell id="Cj8HW5afOCzdOhd1A8s_-23" value="" style="endArrow=classic;html=1;rounded=0;" edge="1" parent="1">
          <mxGeometry width="50" height="50" relative="1" as="geometry">
            <mxPoint x="1470" y="200" as="sourcePoint" />
            <mxPoint x="1540" y="250" as="targetPoint" />
          </mxGeometry>
        </mxCell>
        <mxCell id="Cj8HW5afOCzdOhd1A8s_-24" value="" style="endArrow=classic;html=1;rounded=0;" edge="1" parent="1">
          <mxGeometry width="50" height="50" relative="1" as="geometry">
            <mxPoint x="1680" y="60" as="sourcePoint" />
            <mxPoint x="1730" y="100" as="targetPoint" />
          </mxGeometry>
        </mxCell>
        <mxCell id="Cj8HW5afOCzdOhd1A8s_-25" value="" style="endArrow=classic;html=1;rounded=0;" edge="1" parent="1">
          <mxGeometry width="50" height="50" relative="1" as="geometry">
            <mxPoint x="1680" y="230" as="sourcePoint" />
            <mxPoint x="1730" y="180" as="targetPoint" />
          </mxGeometry>
        </mxCell>
        <mxCell id="Cj8HW5afOCzdOhd1A8s_-26" value="" style="endArrow=classic;html=1;rounded=0;exitX=1;exitY=0.5;exitDx=0;exitDy=0;" edge="1" parent="1" source="Cj8HW5afOCzdOhd1A8s_-8">
          <mxGeometry width="50" height="50" relative="1" as="geometry">
            <mxPoint x="1790" y="158" as="sourcePoint" />
            <mxPoint x="1860" y="140" as="targetPoint" />
          </mxGeometry>
        </mxCell>
        <mxCell id="Cj8HW5afOCzdOhd1A8s_-27" value="" style="endArrow=classic;html=1;rounded=0;" edge="1" parent="1">
          <mxGeometry width="50" height="50" relative="1" as="geometry">
            <mxPoint x="2570" y="158" as="sourcePoint" />
            <mxPoint x="2630" y="158" as="targetPoint" />
          </mxGeometry>
        </mxCell>
        <mxCell id="Cj8HW5afOCzdOhd1A8s_-28" value="" style="endArrow=classic;html=1;rounded=0;" edge="1" parent="1">
          <mxGeometry width="50" height="50" relative="1" as="geometry">
            <mxPoint x="2370" y="150" as="sourcePoint" />
            <mxPoint x="2440" y="150" as="targetPoint" />
          </mxGeometry>
        </mxCell>
        <mxCell id="Cj8HW5afOCzdOhd1A8s_-29" value="" style="endArrow=classic;html=1;rounded=0;" edge="1" parent="1">
          <mxGeometry width="50" height="50" relative="1" as="geometry">
            <mxPoint x="1990" y="148" as="sourcePoint" />
            <mxPoint x="2050" y="148" as="targetPoint" />
          </mxGeometry>
        </mxCell>
        <mxCell id="Cj8HW5afOCzdOhd1A8s_-48" value="1 week " style="edgeLabel;html=1;align=center;verticalAlign=middle;resizable=0;points=[];" vertex="1" connectable="0" parent="Cj8HW5afOCzdOhd1A8s_-29">
          <mxGeometry x="-0.1667" y="11" relative="1" as="geometry">
            <mxPoint as="offset" />
          </mxGeometry>
        </mxCell>
        <mxCell id="Cj8HW5afOCzdOhd1A8s_-32" value="" style="endArrow=classic;html=1;rounded=0;" edge="1" parent="1">
          <mxGeometry width="50" height="50" relative="1" as="geometry">
            <mxPoint x="2185" y="150" as="sourcePoint" />
            <mxPoint x="2240" y="150" as="targetPoint" />
          </mxGeometry>
        </mxCell>
        <mxCell id="Cj8HW5afOCzdOhd1A8s_-49" value="1 week " style="edgeLabel;html=1;align=center;verticalAlign=middle;resizable=0;points=[];" vertex="1" connectable="0" parent="Cj8HW5afOCzdOhd1A8s_-32">
          <mxGeometry x="-0.1364" y="9" relative="1" as="geometry">
            <mxPoint as="offset" />
          </mxGeometry>
        </mxCell>
        <mxCell id="Cj8HW5afOCzdOhd1A8s_-34" value="2 weeks " style="text;html=1;align=center;verticalAlign=middle;resizable=0;points=[];autosize=1;strokeColor=none;fillColor=none;" vertex="1" parent="1">
          <mxGeometry x="205" y="118" width="70" height="30" as="geometry" />
        </mxCell>
        <mxCell id="Cj8HW5afOCzdOhd1A8s_-35" value="3 weeks" style="text;html=1;align=center;verticalAlign=middle;resizable=0;points=[];autosize=1;strokeColor=none;fillColor=none;" vertex="1" parent="1">
          <mxGeometry x="475" y="118" width="70" height="30" as="geometry" />
        </mxCell>
        <mxCell id="Cj8HW5afOCzdOhd1A8s_-36" value="2 weeks " style="text;html=1;align=center;verticalAlign=middle;resizable=0;points=[];autosize=1;strokeColor=none;fillColor=none;" vertex="1" parent="1">
          <mxGeometry x="685" y="128" width="70" height="30" as="geometry" />
        </mxCell>
        <mxCell id="Cj8HW5afOCzdOhd1A8s_-38" value="" style="endArrow=classic;html=1;rounded=0;" edge="1" parent="1">
          <mxGeometry width="50" height="50" relative="1" as="geometry">
            <mxPoint x="1110" y="150.5" as="sourcePoint" />
            <mxPoint x="1180" y="150" as="targetPoint" />
          </mxGeometry>
        </mxCell>
        <mxCell id="Cj8HW5afOCzdOhd1A8s_-39" value="2 weeks " style="text;html=1;align=center;verticalAlign=middle;resizable=0;points=[];autosize=1;strokeColor=none;fillColor=none;" vertex="1" parent="1">
          <mxGeometry x="1095" y="118" width="70" height="30" as="geometry" />
        </mxCell>
        <mxCell id="Cj8HW5afOCzdOhd1A8s_-40" value="1 week " style="text;html=1;align=center;verticalAlign=middle;resizable=0;points=[];autosize=1;strokeColor=none;fillColor=none;" vertex="1" parent="1">
          <mxGeometry x="1300" y="120" width="60" height="30" as="geometry" />
        </mxCell>
        <mxCell id="Cj8HW5afOCzdOhd1A8s_-41" value="1 week " style="text;html=1;align=center;verticalAlign=middle;resizable=0;points=[];autosize=1;strokeColor=none;fillColor=none;" vertex="1" parent="1">
          <mxGeometry x="1450" y="68" width="60" height="30" as="geometry" />
        </mxCell>
        <mxCell id="Cj8HW5afOCzdOhd1A8s_-42" value="1 week " style="text;html=1;align=center;verticalAlign=middle;resizable=0;points=[];autosize=1;strokeColor=none;fillColor=none;" vertex="1" parent="1">
          <mxGeometry x="1440" y="208" width="60" height="30" as="geometry" />
        </mxCell>
        <mxCell id="Cj8HW5afOCzdOhd1A8s_-43" value="1 week " style="text;html=1;align=center;verticalAlign=middle;resizable=0;points=[];autosize=1;strokeColor=none;fillColor=none;" vertex="1" parent="1">
          <mxGeometry x="1690" y="48" width="60" height="30" as="geometry" />
        </mxCell>
        <mxCell id="Cj8HW5afOCzdOhd1A8s_-44" value="1 week " style="text;html=1;align=center;verticalAlign=middle;resizable=0;points=[];autosize=1;strokeColor=none;fillColor=none;" vertex="1" parent="1">
          <mxGeometry x="1690" y="198" width="60" height="30" as="geometry" />
        </mxCell>
        <mxCell id="Cj8HW5afOCzdOhd1A8s_-45" value="1 week " style="text;html=1;align=center;verticalAlign=middle;resizable=0;points=[];autosize=1;strokeColor=none;fillColor=none;" vertex="1" parent="1">
          <mxGeometry x="1790" y="108" width="60" height="30" as="geometry" />
        </mxCell>
        <mxCell id="Cj8HW5afOCzdOhd1A8s_-46" value="1 week " style="text;html=1;align=center;verticalAlign=middle;resizable=0;points=[];autosize=1;strokeColor=none;fillColor=none;" vertex="1" parent="1">
          <mxGeometry x="2570" y="128" width="60" height="30" as="geometry" />
        </mxCell>
        <mxCell id="Cj8HW5afOCzdOhd1A8s_-47" value="1 week " style="text;html=1;align=center;verticalAlign=middle;resizable=0;points=[];autosize=1;strokeColor=none;fillColor=none;" vertex="1" parent="1">
          <mxGeometry x="2380" y="118" width="60" height="30" as="geometry" />
        </mxCell>
      </root>
    </mxGraphModel>
  </diagram>
</mxfile>
